<?xml version="1.0" encoding="UTF-8"?>
<svg width="197px" height="32px" viewBox="0 0 197 32" version="1.1" xmlns="http://www.w3.org/2000/svg" xmlns:xlink="http://www.w3.org/1999/xlink">
    <title>10) Logo / 1) Default</title>
    <defs>
        <polygon id="path-1" points="0.120822946 0.394558074 13.9783499 0.394558074 13.9783499 24.3921717 0.120822946 24.3921717"></polygon>
        <polygon id="path-3" points="0 0.337746176 20.8896456 0.337746176 20.8896456 26.2294618 0 26.2294618"></polygon>
        <polygon id="path-5" points="0.0260062323 0.394558074 13.8829751 0.394558074 13.8829751 24.3921717 0.0260062323 24.3921717"></polygon>
        <polygon id="path-7" points="0.528384136 0.00178583569 6.15722663 0.00178583569 6.15722663 5.79124193 0.528384136 5.79124193"></polygon>
    </defs>
    <g id="Website" stroke="none" stroke-width="1" fill="none" fill-rule="evenodd">
        <g id="11)-UI-/-06)-Footer-2)-Desktop" transform="translate(-152.000000, -51.000000)">
            <g id="logo-default" transform="translate(152.000000, 51.000000)">
                <g id="Group-3" transform="translate(41.855524, 0.163683)">
                    <mask id="mask-2" fill="white">
                        <use xlink:href="#path-1"></use>
                    </mask>
                    <g id="Clip-2"></g>
                    <path d="M13.9783499,19.810387 L13.9783499,24.3921717 L10.3224093,24.3921717 C6.13518272,24.3921717 3.5619051,21.8194521 3.5619051,17.5965088 L3.5619051,9.49718584 L0.120822946,9.49718584 L0.120822946,5.36018584 L3.85154533,5.36018584 L3.82810623,0.434069688 L8.62140085,0.394446459 L8.62140085,5.36018584 L13.8723159,5.36018584 L13.8723159,9.49718584 L8.70790227,9.49718584 L8.70790227,16.9145428 C8.70790227,18.7528374 9.76545184,19.810387 11.6394632,19.810387 L13.9783499,19.810387 Z" id="Fill-1" fill="#000000" mask="url(#mask-2)"></path>
                </g>
                <g id="Group-6" transform="translate(0.000000, 5.186346)">
                    <mask id="mask-4" fill="white">
                        <use xlink:href="#path-3"></use>
                    </mask>
                    <g id="Clip-5"></g>
                    <path d="M20.8896456,0.337746176 L12.5944388,19.1163666 C10.3130337,24.2751994 8.30787507,26.2295734 4.03693739,26.2295734 L1.91569943,26.2295734 L1.91569943,21.6025847 L3.69707054,21.6025847 C6.17714986,21.6025847 6.82116686,20.9429416 7.99033116,18.0655139 L8.06288074,17.9109275 L-0.000167422096,0.337746176 L5.6001017,0.337746176 L10.6774558,12.0455734 L15.4177334,0.337746176 L20.8896456,0.337746176 Z" id="Fill-4" fill="#00C66F" mask="url(#mask-4)"></path>
                </g>
                <path d="M36.1930856,15.0402524 C36.1930856,11.9580116 34.0880317,9.82393796 31.1213122,9.82393796 C28.1540346,9.82393796 26.0495388,11.9580116 26.0495388,15.0402524 C26.0495388,18.1224932 28.1540346,20.2565669 31.1213122,20.2565669 C34.0880317,20.2565669 36.1930856,18.1224932 36.1930856,15.0402524 M20.8332244,15.0402524 C20.8332244,9.26642238 25.2258221,4.98543938 31.1213122,4.98543938 C36.9872244,4.98543938 41.4094,9.27256119 41.4094,15.0402524 C41.4094,20.7783657 36.9872244,25.0945074 31.1213122,25.0945074 C25.2258221,25.0945074 20.8332244,20.7783657 20.8332244,15.0402524" id="Fill-7" fill="#00C66F"></path>
                <path d="M94.9022666,15.0391363 C94.9022666,12.0500938 92.7107113,9.82337989 89.7216688,9.82337989 C86.7320683,9.82337989 84.5343742,12.0562326 84.5343742,15.0391363 C84.5343742,18.022598 86.7320683,20.2554507 89.7216688,20.2554507 C92.7107113,20.2554507 94.9022666,18.0287368 94.9022666,15.0391363 L94.9022666,15.0391363 Z M90.1413402,4.98543938 C95.8733147,4.98543938 100.112442,9.27256119 100.112442,15.0396943 C100.112442,20.8006887 95.8733147,25.1229691 90.1413402,25.1229691 C88.1702241,25.1229691 86.381598,24.5414564 84.9060513,23.5207397 L84.9060513,31.4158076 L79.7606122,31.4158076 L79.7606122,5.52398045 L83.1631873,5.52398045 L84.0421533,7.25456686 C85.6583346,5.82254986 87.767853,4.98599745 90.1418983,4.98599745 L90.1413402,4.98543938 Z" id="Fill-9" fill="#000000"></path>
                <path d="M114.30459,5.41839292 L114.30459,10.2725176 L112.071737,10.2725176 C109.171987,10.2725176 108.025145,11.5572031 108.025145,14.6684637 L108.025145,24.5558547 L102.879148,24.5558547 L102.879148,5.52386884 L106.179038,5.52386884 L107.09372,7.85605864 C108.449281,6.17346657 110.168706,5.41839292 112.613069,5.41839292 L114.30459,5.41839292 Z" id="Fill-11" fill="#000000"></path>
                <g id="Group-15" transform="translate(154.028329, 0.163683)">
                    <mask id="mask-6" fill="white">
                        <use xlink:href="#path-5"></use>
                    </mask>
                    <g id="Clip-14"></g>
                    <path d="M13.8829751,19.810387 L13.8829751,24.3921717 L10.2270346,24.3921717 C6.03980793,24.3921717 3.46708839,21.8194521 3.46708839,17.5965088 L3.46708839,9.49718584 L0.0260062323,9.49718584 L0.0260062323,5.36018584 L3.75617054,5.36018584 L3.73328952,0.434069688 L8.52602606,0.394446459 L8.52602606,5.36018584 L13.7774992,5.36018584 L13.7774992,9.49718584 L8.61308555,9.49718584 L8.61308555,16.9145428 C8.61308555,18.7528374 9.67007705,19.810387 11.5446465,19.810387 L13.8829751,19.810387 Z" id="Fill-13" fill="#000000" mask="url(#mask-6)"></path>
                </g>
                <path d="M184.733597,15.0402524 C184.733597,11.9580116 182.629101,9.82393796 179.661824,9.82393796 C176.695104,9.82393796 174.589492,11.9580116 174.589492,15.0402524 C174.589492,18.1224932 176.695104,20.2565669 179.661824,20.2565669 C182.629101,20.2565669 184.733597,18.1224932 184.733597,15.0402524 M169.373736,15.0402524 C169.373736,9.26642238 173.766892,4.98543938 179.661824,4.98543938 C185.528294,4.98543938 189.949911,9.27256119 189.949911,15.0402524 C189.949911,20.7783657 185.528294,25.0945074 179.661824,25.0945074 C173.766892,25.0945074 169.373736,20.7783657 169.373736,15.0402524" id="Fill-16" fill="#000000"></path>
                <path d="M137.085882,19.2023657 L142.056086,18.287683 C142.081758,19.9825527 143.379279,20.8285924 145.224828,20.8285924 C146.654055,20.8285924 147.932602,20.181785 147.932602,18.9099351 C147.932602,17.6090654 146.282378,17.2145074 144.269964,16.878547 C141.229579,16.3723742 137.362129,15.5587028 137.362129,11.0734649 C137.362129,7.47165751 140.424837,4.98543938 145.019457,4.98543938 C149.32667,4.98543938 152.245953,7.23280198 152.609817,10.6470966 L147.765738,11.3452467 C147.746205,9.83342521 146.685307,9.08672266 144.8911,9.08672266 C143.289429,9.08672266 142.344052,9.82003144 142.344052,10.9099493 C142.344052,12.1784507 143.968605,12.4731136 145.945301,12.831955 C149.049865,13.3894705 153.013304,14.0468813 153.013304,18.6827992 C153.013304,22.5658756 149.838423,25.0945074 145.032293,25.0945074 L145.032851,25.0933912 C140.801537,25.0933912 137.814726,22.9542949 137.169035,19.6309663" id="Fill-18" fill="#000000"></path>
                <path d="M120.576389,12.9671204 L129.799114,12.9671204 C129.071944,10.6405113 127.401072,9.37814873 125.091763,9.37814873 C122.800871,9.37814873 121.174086,10.7147351 120.576389,12.9671204 L120.576389,12.9671204 Z M133.985225,19.6450297 C132.322724,23.0130042 129.012231,25.0940609 125.092321,25.0940609 C119.471961,25.0940609 115.220556,20.7433187 115.220556,15.040364 C115.220556,9.30783144 119.4435,4.98555099 125.092321,4.98555099 C130.93591,4.98555099 134.944554,9.4908796 134.944554,14.9728371 L134.943995,14.9728371 C134.943995,15.4756615 134.908837,15.9784858 134.8441,16.4818683 L120.441335,16.4818683 C120.888352,19.0791431 122.5955,20.5094858 125.091763,20.5094858 C126.879831,20.5094858 128.347565,19.6634462 129.128868,18.3017465 L133.985225,19.6450297 Z" id="Fill-20" fill="#000000"></path>
                <path d="M62.6517482,12.9671204 L71.8739153,12.9671204 C71.1467453,10.6405113 69.4764309,9.37814873 67.1671221,9.37814873 C64.8762297,9.37814873 63.249445,10.7147351 62.6517482,12.9671204 L62.6517482,12.9671204 Z M76.0605839,19.6450297 C74.3975244,23.0130042 71.0875895,25.0940609 67.1671221,25.0940609 C61.5473204,25.0940609 57.2959153,20.7433187 57.2959153,15.040364 C57.2959153,9.30783144 61.5188586,4.98555099 67.1671221,4.98555099 C73.0112694,4.98555099 77.0199125,9.4908796 77.0199125,14.9728371 L77.0193544,14.9728371 C77.0193544,15.4756615 76.9841958,15.9784858 76.9194592,16.4818683 L62.5161363,16.4818683 C62.9631533,19.0791431 64.6708586,20.5094858 67.1671221,20.5094858 C68.954632,20.5094858 70.4223657,19.6634462 71.2042269,18.3017465 L76.0605839,19.6450297 Z" id="Fill-22" fill="#000000"></path>
                <g id="Group-26" transform="translate(190.303116, 20.254335)">
                    <mask id="mask-8" fill="white">
                        <use xlink:href="#path-7"></use>
                    </mask>
                    <g id="Clip-25"></g>
                    <path d="M6.15767309,2.89651388 C6.15767309,1.18601813 4.98906686,0.00178583569 3.34274958,0.00178583569 C1.69643229,0.00178583569 0.528384136,1.18601813 0.528384136,2.89651388 C0.528384136,4.60645156 1.69643229,5.79124193 3.34274958,5.79124193 C4.98906686,5.79124193 6.15767309,4.60645156 6.15767309,2.89651388" id="Fill-24" fill="#00C66F" mask="url(#mask-8)"></path>
                </g>
            </g>
        </g>
    </g>
</svg>